<svg height='100px' width='100px'  fill="#000000" xmlns="http://www.w3.org/2000/svg" xmlns:xlink="http://www.w3.org/1999/xlink" version="1.1" x="0px" y="0px" viewBox="0 0 68 68" style="enable-background:new 0 0 68 68;" xml:space="preserve"><style type="text/css">
	.st0{fill:#000000;}
	.st1{fill:none;stroke:#000000;stroke-width:2;stroke-linecap:round;stroke-linejoin:round;stroke-miterlimit:10;}
</style><g><g><path class="st0" d="M36.9,26.1H6c-0.6,0-1,0.4-1,1v10c0,0.6,0.4,1,1,1h30.9c0.6,0,1-0.4,1-1v-10C37.9,26.5,37.4,26.1,36.9,26.1z     M35.9,36.1H7v-8h28.9V36.1z"></path></g><g><path class="st0" d="M10.8,39.9H6.6c-0.6,0-1,0.4-1,1V45c0,0.6,0.4,1,1,1h4.2c0.6,0,1-0.4,1-1v-4.2C11.8,40.3,11.3,39.9,10.8,39.9    z M9.8,44H7.6v-2.2h2.2V44z"></path></g><g><path class="st0" d="M10.8,48.3H6.6c-0.6,0-1,0.4-1,1v4.2c0,0.6,0.4,1,1,1h4.2c0.6,0,1-0.4,1-1v-4.2    C11.8,48.7,11.3,48.3,10.8,48.3z M9.8,52.5H7.6v-2.2h2.2V52.5z"></path></g><g><path class="st0" d="M10.8,56.7H6.6c-0.6,0-1,0.4-1,1v4.2c0,0.6,0.4,1,1,1h4.2c0.6,0,1-0.4,1-1v-4.2    C11.8,57.2,11.3,56.7,10.8,56.7z M9.8,60.9H7.6v-2.2h2.2V60.9z"></path></g><g><path class="st0" d="M19.3,39.9h-4.2c-0.6,0-1,0.4-1,1V45c0,0.6,0.4,1,1,1h4.2c0.6,0,1-0.4,1-1v-4.2    C20.3,40.3,19.8,39.9,19.3,39.9z M18.3,44h-2.2v-2.2h2.2V44z"></path></g><g><path class="st0" d="M19.3,48.3h-4.2c-0.6,0-1,0.4-1,1v4.2c0,0.6,0.4,1,1,1h4.2c0.6,0,1-0.4,1-1v-4.2    C20.3,48.7,19.8,48.3,19.3,48.3z M18.3,52.5h-2.2v-2.2h2.2V52.5z"></path></g><g><path class="st0" d="M19.3,56.7h-4.2c-0.6,0-1,0.4-1,1v4.2c0,0.6,0.4,1,1,1h4.2c0.6,0,1-0.4,1-1v-4.2    C20.3,57.2,19.8,56.7,19.3,56.7z M18.3,60.9h-2.2v-2.2h2.2V60.9z"></path></g><g><path class="st0" d="M27.8,39.9h-4.2c-0.6,0-1,0.4-1,1V45c0,0.6,0.4,1,1,1h4.2c0.6,0,1-0.4,1-1v-4.2    C28.8,40.3,28.3,39.9,27.8,39.9z M26.8,44h-2.2v-2.2h2.2V44z"></path></g><g><path class="st0" d="M27.8,48.3h-4.2c-0.6,0-1,0.4-1,1v4.2c0,0.6,0.4,1,1,1h4.2c0.6,0,1-0.4,1-1v-4.2    C28.8,48.7,28.3,48.3,27.8,48.3z M26.8,52.5h-2.2v-2.2h2.2V52.5z"></path></g><g><path class="st0" d="M27.8,56.7h-4.2c-0.6,0-1,0.4-1,1v4.2c0,0.6,0.4,1,1,1h4.2c0.6,0,1-0.4,1-1v-4.2    C28.8,57.2,28.3,56.7,27.8,56.7z M26.8,60.9h-2.2v-2.2h2.2V60.9z"></path></g><g><path class="st0" d="M36.2,39.9h-4.1c-0.6,0-1,0.4-1,1V45c0,0.6,0.4,1,1,1h4.1c0.6,0,1-0.4,1-1v-4.2    C37.2,40.3,36.8,39.9,36.2,39.9z M35.2,44h-2.1v-2.2h2.1V44z"></path></g><g><path class="st0" d="M36.2,48.3h-4.1c-0.6,0-1,0.4-1,1v12.6c0,0.6,0.4,1,1,1h4.1c0.6,0,1-0.4,1-1V49.3    C37.2,48.7,36.8,48.3,36.2,48.3z M35.2,60.9h-2.1V50.3h2.1V60.9z"></path></g><g><path class="st0" d="M67,61.9V19.1c0-0.3-0.1-0.6-0.3-0.7L48.9,1.3C48.7,1.1,48.4,1,48.2,1H13.8c-0.6,0-1,0.4-1,1v19.8H2    c-0.6,0-1,0.4-1,1V66c0,0.6,0.4,1,1,1c0.6,0,2.6,0,64,0c0.6,0,1-0.4,1-1L67,61.9C67,61.9,67,61.9,67,61.9z M49.2,4.3l14.3,13.7    H49.2V4.3z M3,23.8c31,0,34.1,0,36.9,0V65H3V23.8z M41.9,65V22.8c0-0.6-0.4-1-1-1H14.8V3h32.4v16.1c0,0.6,0.4,1,1,1H65v41.8    c0,0,0,0,0,0V65H41.9z"></path></g><g><path class="st0" d="M50.4,22.1l-1.9,0c-1.9,0-3.5,1.6-3.5,3.5L44.9,50c0,0,0,0.3,0,0.3l3.4,12.9c0.1,0.4,0.5,0.7,1,0.7    c0,0,0,0,0,0c0.5,0,0.8-0.3,1-0.7l3.5-12.8c0,0,0-0.3,0-0.3l0.1-24.4C53.9,23.6,52.4,22.1,50.4,22.1z M47,25.5    c0-0.8,0.7-1.5,1.5-1.5l1.9,0c0.8,0,1.5,0.7,1.5,1.5L51.8,49l-5,0L47,25.5z M49.3,59l-2.1-8l4.3,0L49.3,59z"></path></g><g><path class="st0" d="M62.1,28.8h-5c-0.6,0-1,0.4-1,1s0.4,1,1,1h5c0.6,0,1-0.4,1-1S62.7,28.8,62.1,28.8z"></path></g><g><path class="st0" d="M62.1,33.5h-5c-0.6,0-1,0.4-1,1s0.4,1,1,1h5c0.6,0,1-0.4,1-1S62.7,33.5,62.1,33.5z"></path></g><g><path class="st0" d="M62.1,38.2h-5c-0.6,0-1,0.4-1,1s0.4,1,1,1h5c0.6,0,1-0.4,1-1S62.7,38.2,62.1,38.2z"></path></g><g><path class="st0" d="M62.1,42.9h-5c-0.6,0-1,0.4-1,1s0.4,1,1,1h5c0.6,0,1-0.4,1-1S62.7,42.9,62.1,42.9z"></path></g><g><path class="st0" d="M62.1,47.6h-5c-0.6,0-1,0.4-1,1s0.4,1,1,1h5c0.6,0,1-0.4,1-1S62.7,47.6,62.1,47.6z"></path></g><g><path class="st0" d="M62.1,52.2h-5c-0.6,0-1,0.4-1,1s0.4,1,1,1h5c0.6,0,1-0.4,1-1S62.7,52.2,62.1,52.2z"></path></g><g><path class="st0" d="M62.1,56.9h-5c-0.6,0-1,0.4-1,1s0.4,1,1,1h5c0.6,0,1-0.4,1-1S62.7,56.9,62.1,56.9z"></path></g><g><path class="st0" d="M43.5,6.4H18.4c-0.6,0-1,0.4-1,1v9.4c0,0.6,0.4,1,1,1h25.1c0.6,0,1-0.4,1-1V7.4C44.5,6.9,44.1,6.4,43.5,6.4z     M42.5,15.8H19.4V8.4h23.1V15.8z"></path></g></g></svg>