<svg height='100px' width='100px'  fill="#000000" xmlns:dc="http://purl.org/dc/elements/1.1/" xmlns:cc="http://creativecommons.org/ns#" xmlns:rdf="http://www.w3.org/1999/02/22-rdf-syntax-ns#" xmlns:svg="http://www.w3.org/2000/svg" xmlns="http://www.w3.org/2000/svg" xmlns:sodipodi="http://sodipodi.sourceforge.net/DTD/sodipodi-0.dtd" xmlns:inkscape="http://www.inkscape.org/namespaces/inkscape" version="1.1" x="0px" y="0px" viewBox="0 0 100 100"><g transform="translate(0,-952.36218)"><path style="font-size:medium;font-style:normal;font-variant:normal;font-weight:normal;font-stretch:normal;text-indent:0;text-align:start;text-decoration:none;line-height:normal;letter-spacing:normal;word-spacing:normal;text-transform:none;direction:ltr;block-progression:tb;writing-mode:lr-tb;text-anchor:start;baseline-shift:baseline;opacity:1;color:#000000;fill:#000000;fill-opacity:1;stroke:none;stroke-width:2;marker:none;visibility:visible;display:inline;overflow:visible;enable-background:accumulate;font-family:Sans;-inkscape-font-specification:Sans" d="M 69.78125 12 A 1.0001 1.0001 0 0 0 69.28125 12.28125 L 17.28125 64.28125 A 1.0001 1.0001 0 0 0 17.03125 64.75 L 12.03125 86.75 A 1.0001 1.0001 0 0 0 13.21875 87.96875 L 35.21875 82.96875 A 1.0001 1.0001 0 0 0 35.71875 82.6875 L 87.71875 30.6875 A 1.0001 1.0001 0 0 0 87.71875 29.28125 L 70.71875 12.28125 A 1.0001 1.0001 0 0 0 69.78125 12 z M 70 14.40625 L 85.5625 30 L 77 38.5625 L 61.4375 23 L 70 14.40625 z M 60 24.40625 L 75.5625 40 L 35 80.5625 L 19.4375 65 L 60 24.40625 z M 18.5625 66.96875 L 33 81.40625 L 14.3125 85.65625 L 18.5625 66.96875 z " transform="translate(0,952.36218)"></path></g></svg>