<svg height='100px' width='100px'  fill="#000000" xmlns="http://www.w3.org/2000/svg" xmlns:xlink="http://www.w3.org/1999/xlink" version="1.1" x="0px" y="0px" viewBox="0 0 512 512" style="enable-background:new 0 0 512 512;" xml:space="preserve"><g><g><path d="M271.889,243.057c-0.166-0.22-0.65-0.581-1.451-1.079c-0.804-0.498-1.826-1.037-3.07-1.618s-2.628-1.133-4.148-1.66    c-1.521-0.525-3.057-0.898-4.604-1.12v11.284l2.654,0.664c2.82,0.775,5.364,1.618,7.633,2.53c2.269,0.913,4.19,2.047,5.768,3.402    c1.577,1.354,2.792,3.001,3.65,4.937c0.856,1.938,1.285,4.261,1.285,6.971c0,3.152-0.554,5.836-1.66,8.048    c-1.104,2.213-2.584,4.022-4.438,5.435c-1.854,1.41-3.98,2.477-6.388,3.194c-2.406,0.718-4.938,1.133-7.593,1.244v9.624h-5.725    v-9.707c-3.817-0.332-7.592-1.105-11.326-2.323c-3.733-1.216-7.094-2.821-10.081-4.812l5.974-11.865    c0.22,0.277,0.815,0.734,1.784,1.369c0.968,0.637,2.199,1.301,3.692,1.99c1.494,0.692,3.181,1.356,5.062,1.992    c1.879,0.637,3.816,1.092,5.808,1.368v-11.034l-3.983-1.162c-2.711-0.83-5.062-1.729-7.052-2.695    c-1.992-0.969-3.639-2.088-4.938-3.36c-1.3-1.271-2.269-2.738-2.904-4.397c-0.636-1.659-0.954-3.595-0.954-5.808    c0-2.875,0.498-5.434,1.494-7.675c0.995-2.24,2.336-4.161,4.024-5.766c1.686-1.604,3.677-2.862,5.974-3.775    c2.294-0.913,4.77-1.506,7.425-1.784v-8.38h5.726v8.38c3.594,0.332,6.969,1.135,10.121,2.406c3.153,1.273,5.892,2.572,8.215,3.899    L271.889,243.057z M248.906,242.31c0,1.383,0.483,2.477,1.452,3.278c0.967,0.802,2.419,1.507,4.356,2.116v-10.206    C250.842,237.83,248.906,239.435,248.906,242.31z M265.002,268.693c0-1.438-0.58-2.558-1.74-3.359    c-1.164-0.801-2.712-1.534-4.647-2.197v9.955C262.872,272.926,265.002,271.461,265.002,268.693z"></path><g><path d="M256,313.139c-31.507,0-57.139-25.632-57.139-57.139s25.632-57.139,57.139-57.139s57.139,25.632,57.139,57.139     S287.507,313.139,256,313.139z M256,206.861c-27.095,0-49.139,22.044-49.139,49.139c0,27.095,22.044,49.139,49.139,49.139     c27.095,0,49.139-22.044,49.139-49.139C305.139,228.905,283.095,206.861,256,206.861z"></path></g><g><path d="M256,363.141c-59.077,0-107.139-48.063-107.139-107.141c0-2.209,1.791-4,4-4s4,1.791,4,4     c0,54.666,44.474,99.141,99.139,99.141c54.666,0,99.14-44.475,99.14-99.141c0-54.666-44.474-99.139-99.14-99.139     c-2.209,0-4-1.791-4-4s1.791-4,4-4c59.077,0,107.14,48.063,107.14,107.139C363.14,315.077,315.077,363.141,256,363.141z"></path></g><g><path d="M256,480c-59.833,0-116.083-23.3-158.392-65.608C55.3,372.084,32,315.832,32,256c0-59.833,23.3-116.084,65.608-158.392     C139.916,55.3,196.167,32,256,32c59.833,0,116.084,23.3,158.392,65.608C456.7,139.916,480,196.167,480,256     c0,59.832-23.3,116.084-65.608,158.392C372.084,456.7,315.833,480,256,480z M256,40C136.897,40,40,136.897,40,256     c0,119.103,96.897,216,216,216c119.103,0,216-96.897,216-216C472,136.897,375.103,40,256,40z"></path></g><g><path d="M256,410c-84.916,0-154-69.084-154-154s69.084-154,154-154s154,69.084,154,154S340.916,410,256,410z M256,110     c-80.505,0-146,65.495-146,146s65.495,146,146,146s146-65.495,146-146S336.505,110,256,110z"></path></g><g><path d="M256,110c-2.209,0-4-1.791-4-4V36c0-2.209,1.791-4,4-4s4,1.791,4,4v70C260,108.209,258.209,110,256,110z"></path></g><g><path d="M256,480c-2.209,0-4-1.791-4-4v-70c0-2.209,1.791-4,4-4s4,1.791,4,4v70C260,478.209,258.209,480,256,480z"></path></g><g><path d="M362.066,153.934c-1.023,0-2.047-0.391-2.828-1.171c-1.563-1.562-1.563-4.095,0-5.657l49.496-49.497     c1.561-1.562,4.094-1.562,5.656,0c1.563,1.562,1.563,4.095,0,5.657l-49.496,49.497     C364.114,153.543,363.09,153.934,362.066,153.934z"></path></g><g><path d="M100.437,415.563c-1.024,0-2.047-0.391-2.829-1.172c-1.562-1.562-1.562-4.095,0-5.656l49.497-49.496     c1.563-1.563,4.095-1.562,5.657,0s1.562,4.095,0,5.656l-49.497,49.496C102.484,415.172,101.46,415.563,100.437,415.563z"></path></g><g><path d="M476,260h-70c-2.209,0-4-1.791-4-4s1.791-4,4-4h70c2.209,0,4,1.791,4,4S478.209,260,476,260z"></path></g><g><path d="M106,260H36c-2.209,0-4-1.791-4-4s1.791-4,4-4h70c2.209,0,4,1.791,4,4S108.209,260,106,260z"></path></g><g><path d="M411.563,415.563c-1.023,0-2.048-0.391-2.828-1.172l-49.496-49.496c-1.563-1.562-1.563-4.095,0-5.656     c1.561-1.563,4.096-1.563,5.656,0l49.496,49.496c1.563,1.562,1.563,4.095,0,5.656     C413.61,415.172,412.586,415.563,411.563,415.563z"></path></g><g><path d="M149.934,153.934c-1.024,0-2.047-0.391-2.829-1.171l-49.497-49.497c-1.562-1.563-1.562-4.095,0-5.657     c1.563-1.562,4.095-1.562,5.657,0l49.497,49.497c1.562,1.563,1.562,4.095,0,5.657     C151.981,153.543,150.958,153.934,149.934,153.934z"></path></g></g></g></svg>