<svg height='100px' width='100px'  fill="#000000" xmlns="http://www.w3.org/2000/svg" xmlns:xlink="http://www.w3.org/1999/xlink" version="1.1" x="0px" y="0px" viewBox="0 0 100 100" style="enable-background:new 0 0 100 100;" xml:space="preserve"><g><g><path d="M23.5,66.5c-0.4,0-0.8-0.2-1-0.6c-2.8-4.8-4.2-10.3-4.2-15.8c0-0.6,0.5-1.1,1.1-1.1    c0.6,0,1.1,0.5,1.1,1.1c0,5.2,1.4,10.3,3.9,14.7c0.3,0.5,0.1,1.2-0.4,1.5C23.9,66.5,23.7,66.5,23.5,66.5z"></path></g><g><g><g><path d="M50,55.8c-6.2,0-11.2-6.1-11.2-13.7s5-13.7,11.2-13.7c6.2,0,11.2,6.1,11.2,13.7S56.2,55.8,50,55.8z       M50,30.6c-5,0-9,5.2-9,11.5s4.1,11.5,9,11.5c5,0,9-5.2,9-11.5S55,30.6,50,30.6z"></path></g></g><g><path d="M50,81.8c-7.8,0-15-2.8-20.9-8.1c-0.2-0.2-0.4-0.5-0.4-0.8v-9.4c0-1.9,0.5-3.6,1.4-5.1     c0.5-0.9,1.2-1.6,1.9-2.2c2.8-2.3,9.9-6.1,10.2-6.3c0.5-0.3,1.2-0.1,1.5,0.4c0.3,0.5,0.1,1.2-0.4,1.5c-0.1,0-7.1,3.9-9.8,6     c-0.6,0.4-1,1-1.4,1.6c-0.7,1.1-1.1,2.5-1.1,3.9v8.9c5.4,4.7,12,7.2,19.1,7.2c6.9,0,13.6-2.6,19.1-7.2v-8.9     c0-1.5-0.4-2.8-1.1-3.9c-0.4-0.6-0.9-1.2-1.4-1.6c-2.7-2.2-9.8-6-9.8-6c-0.5-0.3-0.7-1-0.4-1.5c0.3-0.5,1-0.7,1.5-0.4     c0.3,0.2,7.3,4,10.2,6.3c0.7,0.6,1.4,1.3,1.9,2.2c0.9,1.5,1.4,3.2,1.4,5.1v9.4c0,0.3-0.1,0.6-0.4,0.8C65,78.9,57.6,81.8,50,81.8z     "></path></g></g><g><path d="M76.5,66.5c-0.2,0-0.4,0-0.6-0.1c-0.5-0.3-0.7-1-0.4-1.5c2.6-4.5,3.9-9.5,3.9-14.7c0-0.6,0.5-1.1,1.1-1.1    s1.1,0.5,1.1,1.1c0,5.6-1.5,11-4.2,15.8C77.2,66.3,76.8,66.5,76.5,66.5z"></path></g><g><path d="M58.2,100H41.8c-0.5,0-0.9-0.3-1.1-0.8L40,96.5c-1.5-5.1-4.9-9.4-9.7-12.1l-0.2-0.1    c-4.7-2.8-10.2-3.6-15.3-2.3l-2.7,0.7c-0.5,0.1-1-0.1-1.2-0.5L2.7,68c-0.2-0.4-0.2-1,0.2-1.3l1.9-2c3.7-3.8,5.7-8.9,5.7-14.4v-0.2    c0-0.6,0.5-1.1,1.1-1.1c0.6,0,1.1,0.5,1.1,1.1v0.2c0,6.1-2.2,11.7-6.3,15.9L5,67.6l7.4,12.7l1.9-0.5c5.7-1.4,11.7-0.5,16.9,2.5    l0.2,0.1c5.3,3,9.1,7.8,10.7,13.4l0.5,1.9h14.7l0.5-1.9c1.6-5.6,5.4-10.4,10.7-13.4l0.6,0.9l-0.6-1l0.6,0.9l-0.6-1    c5.3-3.1,11.3-4,17-2.6l1.9,0.5L95,67.6l-1.3-1.4c-4.1-4.2-6.3-9.9-6.3-16V50c0-0.6,0.5-1.1,1.1-1.1s1.1,0.5,1.1,1.1v0.2    c0,5.5,2,10.7,5.7,14.5l1.9,2c0.3,0.4,0.4,0.9,0.2,1.3l-8.2,14.2c-0.2,0.4-0.7,0.6-1.2,0.5L85.2,82c-5.1-1.3-10.6-0.4-15.3,2.3    c0,0-0.1,0-0.1,0c0,0-0.1,0-0.1,0c-4.8,2.7-8.2,7.1-9.7,12.1l-0.8,2.7C59.1,99.7,58.7,100,58.2,100z"></path></g><g><path d="M80.6,51c-0.6,0-1.1-0.5-1.1-1.1c0-16.2-13.2-29.5-29.5-29.5c-16.2,0-29.5,13.2-29.5,29.5    c0,0.6-0.5,1.1-1.1,1.1c-0.6,0-1.1-0.5-1.1-1.1c0-17.5,14.2-31.7,31.7-31.7c17.5,0,31.7,14.2,31.7,31.7C81.7,50.5,81.2,51,80.6,51    z"></path></g><g><path d="M11.6,51.1c-0.6,0-1.1-0.5-1.1-1.1v-0.2c0-5.5-2-10.7-5.7-14.5l-1.9-2C2.5,33,2.5,32.4,2.7,32l8.2-14.2    c0.2-0.4,0.7-0.6,1.2-0.5l2.7,0.7c5.1,1.3,10.6,0.4,15.3-2.3l0.1,0c0,0,0.1,0,0.1,0c4.8-2.7,8.2-7.1,9.7-12.1l0.8-2.7    C40.9,0.3,41.3,0,41.8,0h16.4c0.5,0,0.9,0.3,1.1,0.8L60,3.5c1.5,5.1,4.9,9.4,9.7,12.1l0.2,0.1c4.7,2.8,10.2,3.6,15.3,2.3l2.7-0.7    c0.5-0.1,1,0.1,1.2,0.5L97.3,32c0.2,0.4,0.2,1-0.2,1.3l-1.9,2c-3.7,3.8-5.7,8.9-5.7,14.4l0,0.2c0,0.6-0.5,1.1-1.1,1.1    s-1.1-0.5-1.1-1.1l0-0.2c0-6.1,2.2-11.7,6.3-16l1.3-1.4l-7.4-12.7l-1.9,0.5C80,21.5,74,20.6,68.8,17.6l-0.1-0.1    c-5.3-3.1-9.1-7.8-10.7-13.5l-0.5-1.9H42.6l-0.5,1.9c-1.6,5.6-5.4,10.4-10.7,13.4c0,0-0.1,0-0.1,0l-0.1,0c-5.3,3.1-11.3,4-17,2.6    l-1.9-0.5L5,32.4l1.3,1.4c4.1,4.2,6.3,9.9,6.3,16V50C12.7,50.6,12.2,51.1,11.6,51.1C11.6,51.1,11.6,51.1,11.6,51.1z"></path></g></g></svg>