<svg height='100px' width='100px'  fill="#000000" xmlns="http://www.w3.org/2000/svg" xmlns:xlink="http://www.w3.org/1999/xlink" version="1.1" x="0px" y="0px" viewBox="206 206 100 100" enable-background="new 206 206 100 100" xml:space="preserve"><g><path d="M297.003,286.769v-35.921c0-0.002,0-0.004,0-0.006c0-5.343-4.345-9.689-9.688-9.689h-5.704   c-0.274-3.379-2.298-6.373-5.349-7.884v-7.316c0-0.002,0.001-0.003,0.001-0.005v-6.421c0-0.164-0.05-0.316-0.136-0.443   c-0.143-0.21-0.384-0.349-0.656-0.349h-11.131v-2.418c0-0.438-0.354-0.792-0.791-0.792h-6.422c-0.002,0-0.004,0-0.005,0h-11.968   c-0.001,0-0.003,0-0.004,0h-6.422c-0.053,0-0.106,0.006-0.158,0.016c-0.024,0.004-0.045,0.014-0.068,0.021   c-0.026,0.008-0.053,0.014-0.078,0.024c-0.038,0.016-0.073,0.036-0.107,0.057c-0.009,0.005-0.02,0.009-0.028,0.015   c-0.212,0.142-0.352,0.384-0.352,0.659v2.417h-11.619c-0.437,0-0.792,0.354-0.792,0.792v12.733h-0.833   c-0.003,0-0.006-0.001-0.009-0.001c-5.336,0-9.679,4.338-9.687,9.673c0,0.004-0.001,0.009-0.001,0.014v44.843   c0,0.004,0.001,0.01,0.001,0.015c0.008,5.334,4.35,9.673,9.687,9.673h62.634c2.543,0,4.946-0.979,6.768-2.756   c1.817-1.773,2.854-4.146,2.918-6.676c0-0.008,0-0.015,0-0.021c0-0.002,0-0.003,0-0.004v-0.031   c0.002-0.066,0.003-0.134,0.003-0.198C297.006,286.783,297.003,286.776,297.003,286.769z M276.263,235.08   c2.121,1.328,3.515,3.567,3.759,6.073h-3.759V235.08z M274.68,220.319v4.782c-2.472-0.349-4.433-2.31-4.782-4.782H274.68z    M264.34,222.747c0-0.004,0.001-0.007,0.001-0.01v-2.419h3.962c0.367,3.345,3.031,6.01,6.377,6.377v7.072c0,0,0,0.002,0,0.003   v7.383h-4.452c-0.352-3.154-2.767-5.743-5.887-6.303L264.34,222.747L264.34,222.747z M264.34,236.469   c2.242,0.523,3.965,2.396,4.294,4.684h-4.294V236.469z M262.757,217.109v4.781c-2.472-0.35-4.432-2.31-4.781-4.781H262.757z    M239.52,217.109h4.783c-0.35,2.471-2.311,4.432-4.783,4.781V217.109z M239.519,223.485c3.346-0.367,6.011-3.031,6.378-6.376   h10.483c0.368,3.345,3.031,6.009,6.376,6.376v17.668h-4.826c0.275-0.772,0.421-1.59,0.421-2.418c0-3.977-3.236-7.213-7.211-7.213   c-3.978,0-7.213,3.236-7.213,7.213c0,0.721,0.111,1.432,0.32,2.112c0.006,0.033,0.014,0.065,0.024,0.097   c0.005,0.016,0.013,0.031,0.019,0.047c0.018,0.054,0.037,0.108,0.057,0.162h-4.828V223.485z M256.768,238.735   c0,0.84-0.188,1.668-0.545,2.418h-5.085h-0.487h-4.594c-0.108-0.225-0.198-0.458-0.274-0.695c-0.045-0.222-0.101-0.439-0.167-0.649   c-0.068-0.352-0.105-0.711-0.105-1.074c0-3.104,2.525-5.629,5.63-5.629C254.243,233.105,256.768,235.631,256.768,238.735z    M227.11,220.319h4.783c-0.168,1.203-0.72,2.314-1.595,3.188c-0.875,0.875-1.986,1.426-3.188,1.595V220.319z M227.109,226.696   c1.627-0.177,3.135-0.895,4.31-2.069c1.174-1.175,1.892-2.683,2.068-4.31h4.45v14.461c-3.343,0.369-6.006,3.032-6.374,6.375h-4.454   V226.696z M237.935,236.373v4.78h-4.779C233.508,238.684,235.467,236.724,237.935,236.373z M224.675,233.843   c0.002,0,0.005,0,0.007,0h0.843v7.31h-8.906C217.019,237.058,220.478,233.847,224.675,233.843z M295.42,277.036h-23.462   c-4.47,0-8.104-3.636-8.104-8.105c0-4.468,3.635-8.104,8.104-8.104h0.001h23.461V277.036L295.42,277.036z M295.42,250.842v8.4   h-23.462c-0.001,0-0.003,0-0.003,0c-5.341,0.003-9.686,4.348-9.686,9.688c0,5.343,4.347,9.688,9.688,9.688h23.462v8.382   c-0.112,4.352-3.746,7.892-8.103,7.892h-62.635c-4.468,0-8.103-3.635-8.103-8.104c0-0.003-0.001-0.007-0.001-0.011v-44.041h9.738   h5.991h6.419h6.421h0.433h5.069h0.487h5.504h0.058h6.85h5.934h5.989h11.844c4.468,0,8.102,3.633,8.104,8.1   C295.42,250.839,295.42,250.84,295.42,250.842z"></path><path d="M266.718,268.93c0,2.89,2.351,5.24,5.24,5.24s5.24-2.351,5.24-5.24s-2.351-5.239-5.24-5.239   S266.718,266.041,266.718,268.93z M275.615,268.93c0,2.017-1.641,3.656-3.656,3.656c-2.017,0-3.656-1.64-3.656-3.656   c0-2.016,1.64-3.656,3.656-3.656C273.974,265.274,275.615,266.915,275.615,268.93z"></path></g></svg>